<svg version="1.1" id="Layer_1" xmlns="http://www.w3.org/2000/svg" xmlns:xlink="http://www.w3.org/1999/xlink" x="0px" y="0px"
	 width="100%" viewBox="0 0 1024 1024" enable-background="new 0 0 1024 1024" xml:space="preserve">
<path fill="#FFFFFF" opacity="1.000000" stroke="none" 
	d="
M650.000000,1025.000000 
	C433.333344,1025.000000 217.166672,1025.000000 1.000000,1025.000000 
	C1.000000,683.666687 1.000000,342.333344 1.000000,1.000000 
	C342.333344,1.000000 683.666687,1.000000 1025.000000,1.000000 
	C1025.000000,342.333344 1025.000000,683.666687 1025.000000,1025.000000 
	C900.166687,1025.000000 775.333313,1025.000000 650.000000,1025.000000 
M286.179291,480.240936 
	C285.818390,480.096802 285.457489,479.952698 285.125641,479.946716 
	C285.125641,479.946716 285.253387,479.886627 285.322479,479.259796 
	C284.888763,478.808960 284.455078,478.358154 283.976929,477.450592 
	C283.844025,477.133606 283.606079,476.963806 283.011047,476.404907 
	C282.693085,476.178314 282.375122,475.951691 281.853455,475.212006 
	C281.272247,474.799561 280.691040,474.387146 279.703430,473.508423 
	C279.155731,473.264862 278.608032,473.021271 278.056580,472.895996 
	C278.056580,472.895996 278.170288,472.863251 277.873932,472.237915 
	C274.599701,470.732849 271.325500,469.227814 267.712402,467.230560 
	C267.128448,467.188110 266.544464,467.145660 265.159210,466.936249 
	C258.190491,466.523315 251.093964,464.970520 244.036560,469.526154 
	C241.521637,470.610077 238.735458,471.307312 236.540405,472.847198 
	C228.523895,478.471008 224.478210,486.526581 223.020935,497.005798 
	C223.014847,546.898560 223.000305,596.791260 223.042404,646.683960 
	C223.043701,648.219299 223.633255,649.754150 223.771957,652.078857 
	C225.144089,665.497131 232.965164,674.140991 244.133835,680.811951 
	C291.562164,709.140564 338.896545,737.626892 386.202881,766.158997 
	C421.432251,787.407166 456.529449,808.874756 491.809113,830.038574 
	C494.725952,831.788452 498.590332,831.958801 502.736938,833.235352 
	C510.891663,833.975891 518.491638,832.266357 525.541382,828.094360 
	C582.282349,794.514771 639.035400,760.955505 695.761475,727.350830 
	C716.560669,715.029175 737.297058,702.601624 758.623108,690.042419 
	C758.851624,689.748962 759.080200,689.455444 759.102722,689.208923 
	C759.102722,689.208923 759.202881,689.395020 759.857117,689.236572 
	C760.960510,688.527222 762.063904,687.817810 763.061890,687.078979 
	C763.061890,687.078979 763.063599,687.188477 763.681885,687.006836 
	C764.550110,686.424011 765.418396,685.841248 766.136475,685.234619 
	C766.136475,685.234619 766.192017,685.376160 766.827209,685.217163 
	C767.661072,684.573181 768.494934,683.929138 769.197876,683.207458 
	C769.197876,683.207458 769.205933,683.359375 769.787903,683.202637 
	C769.962891,682.905273 770.137817,682.607910 770.411133,682.493469 
	C770.411133,682.493469 770.617371,682.469299 771.112549,682.297852 
	C771.457458,681.893799 771.802429,681.489746 772.052979,681.059265 
	C772.052979,681.059265 772.051025,681.157227 772.575623,680.965759 
	C772.785339,680.668091 772.995056,680.370422 773.060120,680.061401 
	C773.060120,680.061401 773.075684,680.205688 773.597595,679.991577 
	C773.800964,679.684326 774.004333,679.377075 774.059204,679.061035 
	C774.059204,679.061035 774.077148,679.208801 774.608948,678.999817 
	C774.796814,678.685913 774.984741,678.372009 775.064270,678.057556 
	C775.064270,678.057556 775.090637,678.162598 775.609619,677.775452 
	C776.474487,676.557068 777.339417,675.338684 778.105286,674.093140 
	C778.105286,674.093140 778.122009,674.194580 778.713440,673.842773 
	C788.397522,660.759033 788.037964,641.159851 780.004700,629.977173 
	C780.004700,629.977173 780.076477,629.974548 779.985718,629.414917 
	C779.738586,629.170593 779.491455,628.926331 779.337830,628.824280 
	C779.337830,628.824280 779.439941,628.688049 779.241821,628.102234 
	C778.504517,627.379089 777.767212,626.655884 776.994507,625.982788 
	C776.994507,625.982788 777.055847,625.981018 776.939148,625.445679 
	C776.643677,625.242798 776.348267,625.039978 776.053101,624.936096 
	C776.053101,624.936096 776.148621,624.910034 775.900635,624.374146 
	C775.404968,624.085754 774.909302,623.797424 774.354980,623.463623 
	C774.354980,623.463623 774.386963,623.396667 774.045227,622.954102 
	C773.383179,622.597412 772.721191,622.240723 772.041199,621.969238 
	C772.041199,621.969238 772.120117,621.932434 771.743103,621.392761 
	C770.606445,620.774963 769.469849,620.157166 768.134399,619.636108 
	C768.134399,619.636108 768.234680,619.833252 768.027954,619.137024 
	C767.567871,618.976562 767.107788,618.816162 766.425476,618.072327 
	C749.484497,607.733459 732.545410,597.391541 715.602112,587.056519 
	C697.060181,575.746277 678.514465,564.442383 659.563354,552.922791 
	C659.563354,552.922791 659.126526,552.780823 659.108276,552.889587 
	C659.108276,552.889587 659.214294,552.859314 659.182068,552.235535 
	C659.325256,551.845459 659.468445,551.455444 660.280762,551.159058 
	C695.778076,530.649170 731.284241,510.154572 766.766235,489.618225 
	C775.310486,484.672913 780.717896,477.173615 784.066711,467.323242 
	C784.125244,466.893738 784.183716,466.464264 784.744080,465.702240 
	C784.796204,465.118561 784.848328,464.534912 785.001465,463.025146 
	C784.950256,428.044220 784.899048,393.063263 784.971008,357.269073 
	C783.538513,342.279633 774.558533,331.585571 762.738647,324.412598 
	C728.277466,303.499451 693.144653,283.693665 658.291687,263.425323 
	C610.223938,235.472153 562.020203,207.747055 514.238464,179.312912 
	C504.552521,173.548981 494.538391,174.605530 484.857422,175.067886 
	C478.062286,175.392410 471.119568,179.880203 464.885284,183.588928 
	C391.439514,227.281097 318.137207,271.214355 244.736237,314.982025 
	C233.061569,321.943390 225.642578,331.671814 223.037109,346.004517 
	C223.069229,356.644470 223.101334,367.284424 223.024139,378.701782 
	C228.936325,399.964630 240.699127,408.944366 262.047058,408.491974 
	C276.230408,408.191345 288.106201,398.260590 293.013702,382.513184 
	C295.317535,375.120544 299.293945,369.361176 306.259277,365.273621 
	C339.058746,346.025574 371.667633,326.453003 404.359711,307.021698 
	C428.773132,292.511017 453.182556,277.993225 477.649506,263.573120 
	C487.136383,257.981873 496.293030,257.938507 506.178558,263.837646 
	C543.821411,286.300781 581.759827,308.268646 619.582764,330.430176 
	C634.958374,339.439148 650.321167,348.470032 666.033875,357.692932 
	C658.274109,362.232056 651.031311,366.567719 643.696716,370.742249 
	C608.196838,390.947388 572.592590,410.970428 537.177551,431.322968 
	C496.300262,454.814545 455.553101,478.533203 414.806458,502.251160 
	C392.159363,515.433655 369.671661,528.890015 347.022400,542.068665 
	C338.759460,546.876465 328.900238,547.031006 320.870117,544.319275 
	C308.987946,540.306763 299.939484,531.328674 295.140381,518.113159 
	C294.448090,512.386658 293.588531,506.674225 293.106689,500.930084 
	C292.532928,494.089691 291.377319,487.508606 287.022034,481.972473 
	C287.022034,481.972473 287.098145,481.973053 286.994843,481.384003 
	C286.694550,481.196625 286.394287,481.009247 286.107544,480.937164 
	C286.107544,480.937164 286.214020,480.890808 286.179291,480.240936 
z"/>
<path fill="#41AC86" opacity="1.000000" stroke="none" 
	d="
M502.014465,832.863098 
	C498.590332,831.958801 494.725952,831.788452 491.809113,830.038574 
	C456.529449,808.874756 421.432251,787.407166 386.202881,766.158997 
	C338.896545,737.626892 291.562164,709.140564 244.133835,680.811951 
	C232.965164,674.140991 225.144089,665.497131 223.873352,651.195251 
	C223.982513,600.494751 223.997665,550.677795 223.964554,500.860931 
	C223.963501,499.272675 223.466919,497.684784 223.201324,496.096710 
	C224.478210,486.526581 228.523895,478.471008 236.540405,472.847198 
	C238.735458,471.307312 241.521637,470.610077 244.789917,469.308838 
	C250.393600,469.035400 255.254227,469.144775 260.089264,468.843292 
	C262.074768,468.719452 264.005096,467.709869 265.960510,467.103210 
	C266.544464,467.145660 267.128448,467.188110 268.007751,467.807343 
	C271.592133,469.877167 274.881226,471.370209 278.170288,472.863251 
	C278.170288,472.863251 278.056580,472.895996 278.178223,473.142090 
	C278.903168,473.583679 279.506500,473.779175 280.109833,473.974701 
	C280.691040,474.387146 281.272247,474.799561 282.052277,475.759857 
	C282.588440,476.518890 282.925751,476.730072 283.263092,476.941254 
	C283.606079,476.963806 283.844025,477.133606 284.031982,478.002777 
	C284.475800,478.998840 284.864594,479.442749 285.253387,479.886627 
	C285.253387,479.886627 285.125641,479.946716 285.186462,480.153931 
	C285.569550,480.537689 285.891785,480.714233 286.214020,480.890808 
	C286.214020,480.890808 286.107544,480.937164 286.164154,481.149841 
	C286.513214,481.566040 286.805664,481.769562 287.098145,481.973053 
	C287.098145,481.973053 287.022034,481.972473 287.036499,482.328705 
	C290.607788,491.813049 292.367828,501.209595 292.222931,511.070740 
	C292.184631,513.677612 294.226990,516.315002 295.313965,518.938416 
	C299.939484,531.328674 308.987946,540.306763 320.870117,544.319275 
	C328.900238,547.031006 338.759460,546.876465 347.022400,542.068665 
	C369.671661,528.890015 392.159363,515.433655 414.806458,502.251160 
	C455.553101,478.533203 496.300262,454.814545 537.177551,431.322968 
	C572.592590,410.970428 608.196838,390.947388 643.696716,370.742249 
	C651.031311,366.567719 658.274109,362.232056 666.033875,357.692932 
	C650.321167,348.470032 634.958374,339.439148 619.582764,330.430176 
	C581.759827,308.268646 543.821411,286.300781 506.178558,263.837646 
	C496.293030,257.938507 487.136383,257.981873 477.649506,263.573120 
	C453.182556,277.993225 428.773132,292.511017 404.359711,307.021698 
	C371.667633,326.453003 339.058746,346.025574 306.259277,365.273621 
	C299.293945,369.361176 295.317535,375.120544 293.013702,382.513184 
	C288.106201,398.260590 276.230408,408.191345 262.047058,408.491974 
	C240.699127,408.944366 228.936325,399.964630 223.362885,378.016937 
	C223.800079,370.611511 224.014511,363.889862 223.953415,357.170746 
	C223.916763,353.141174 223.449707,349.115509 223.176086,345.088104 
	C225.642578,331.671814 233.061569,321.943390 244.736237,314.982025 
	C318.137207,271.214355 391.439514,227.281097 464.885284,183.588928 
	C471.119568,179.880203 478.062286,175.392410 484.857422,175.067886 
	C494.538391,174.605530 504.552521,173.548981 514.238464,179.312912 
	C562.020203,207.747055 610.223938,235.472153 658.291687,263.425323 
	C693.144653,283.693665 728.277466,303.499451 762.738647,324.412598 
	C774.558533,331.585571 783.538513,342.279633 784.629456,357.974304 
	C784.192932,359.331421 784.015259,359.983337 784.014954,360.635284 
	C784.000427,393.844543 783.991272,427.053772 784.037842,460.262970 
	C784.039612,461.492798 784.600342,462.721832 784.900513,463.951233 
	C784.848328,464.534912 784.796204,465.118561 784.233154,465.966736 
	C783.782410,466.804962 783.842529,467.378693 783.902710,467.952393 
	C780.717896,477.173615 775.310486,484.672913 766.766235,489.618225 
	C731.284241,510.154572 695.778076,530.649170 659.538330,551.103210 
	C656.535034,550.021729 654.142761,549.213440 652.032959,547.937988 
	C616.808289,526.642090 581.647156,505.240997 546.408447,483.968353 
	C531.354004,474.880402 516.154175,466.033325 500.796631,457.152771 
	C500.285278,457.416412 500.136536,457.681854 500.114563,458.465027 
	C500.122742,461.250854 500.142944,463.596802 500.109802,466.414246 
	C500.093750,480.276337 500.130981,493.666901 500.152557,507.371094 
	C500.150391,508.102905 500.163879,508.521179 500.120728,509.407104 
	C500.096191,514.268555 500.128296,518.662292 500.133575,523.520264 
	C500.106567,562.638306 500.106354,601.292236 500.073029,640.417114 
	C500.597595,704.880737 498.429749,768.901489 502.014465,832.863098 
z"/>
<path fill="#2D8A65" opacity="1.000000" stroke="none" 
	d="
M502.375702,833.049194 
	C498.429749,768.901489 500.597595,704.880737 500.422546,640.395752 
	C520.175781,629.276550 539.596741,618.740417 558.905212,608.001953 
	C589.831482,590.802307 620.674194,573.452637 651.583740,556.222839 
	C654.001099,554.875305 656.664978,553.970093 659.214294,552.859314 
	C659.214294,552.859314 659.108276,552.889587 659.135254,553.033020 
	C659.431641,553.162903 659.701050,553.149292 659.970398,553.135742 
	C678.514465,564.442383 697.060181,575.746277 715.602112,587.056519 
	C732.545410,597.391541 749.484497,607.733459 766.750000,618.636597 
	C767.461182,619.411621 767.847961,619.622437 768.234680,619.833252 
	C768.234680,619.833252 768.134399,619.636108 768.224121,619.972290 
	C769.582581,620.849854 770.851318,621.391113 772.120117,621.932434 
	C772.120117,621.932434 772.041199,621.969238 772.067749,622.292847 
	C772.858582,622.876526 773.622742,623.136597 774.386963,623.396667 
	C774.386963,623.396667 774.354980,623.463623 774.359985,623.835327 
	C774.959595,624.441406 775.554077,624.675720 776.148621,624.910034 
	C776.148621,624.910034 776.053101,624.936096 776.135742,625.143677 
	C776.497498,625.561157 776.776672,625.771057 777.055847,625.981018 
	C777.055847,625.981018 776.994507,625.982788 777.046997,626.307312 
	C777.879639,627.317200 778.659790,628.002625 779.439941,628.688049 
	C779.439941,628.688049 779.337830,628.824280 779.301880,629.038513 
	C779.536133,629.493347 779.806335,629.733948 780.076477,629.974548 
	C780.076477,629.974548 780.004700,629.977173 780.021301,630.337891 
	C780.052429,631.030090 779.972656,631.402039 780.095093,631.687134 
	C785.941956,645.295105 786.119995,658.680420 778.630554,671.809753 
	C778.246826,672.482544 778.281921,673.394165 778.122009,674.194580 
	C778.122009,674.194580 778.105286,674.093140 777.792725,674.097290 
	C776.683655,675.455139 775.887146,676.808899 775.090637,678.162598 
	C775.090637,678.162598 775.064270,678.057556 774.847412,678.149414 
	C774.446106,678.563843 774.261597,678.886292 774.077148,679.208801 
	C774.077148,679.208801 774.059204,679.061035 773.858337,679.155090 
	C773.463501,679.567993 773.269592,679.886841 773.075684,680.205688 
	C773.075684,680.205688 773.060120,680.061401 772.859497,680.149048 
	C772.456238,680.543579 772.253662,680.850403 772.051025,681.157227 
	C772.051025,681.157227 772.052979,681.059265 771.758240,681.068542 
	C771.181458,681.541687 770.899414,682.005493 770.617371,682.469299 
	C770.617371,682.469299 770.411133,682.493469 770.055664,682.405762 
	C769.535461,682.665100 769.370728,683.012268 769.205933,683.359375 
	C769.205933,683.359375 769.197876,683.207458 768.898315,683.168457 
	C767.796570,683.878296 766.994263,684.627258 766.192017,685.376160 
	C766.192017,685.376160 766.136475,685.234619 765.854004,685.178101 
	C764.735535,685.810547 763.899536,686.499512 763.063599,687.188477 
	C763.063599,687.188477 763.061890,687.078979 762.737671,687.054382 
	C761.343262,687.818176 760.273071,688.606567 759.202881,689.395020 
	C759.202881,689.395020 759.102722,689.208923 758.909851,689.241638 
	C758.498657,689.590332 758.280334,689.906311 758.062073,690.222412 
	C737.297058,702.601624 716.560669,715.029175 695.761475,727.350830 
	C639.035400,760.955505 582.282349,794.514771 525.541382,828.094360 
	C518.491638,832.266357 510.891663,833.975891 502.375702,833.049194 
z"/>
<path fill="#1B7959" opacity="1.000000" stroke="none" 
	d="
M659.198181,552.547424 
	C656.664978,553.970093 654.001099,554.875305 651.583740,556.222839 
	C620.674194,573.452637 589.831482,590.802307 558.905212,608.001953 
	C539.596741,618.740417 520.175781,629.276550 500.455688,639.924805 
	C500.106354,601.292236 500.106567,562.638306 500.506042,523.398987 
	C502.218445,518.107239 503.621399,513.396179 500.177368,508.939423 
	C500.163879,508.521179 500.150391,508.102905 500.525421,507.247620 
	C501.267670,506.116974 501.925903,505.425079 501.929840,504.729523 
	C501.997314,492.809235 502.028107,480.888123 501.909149,468.968719 
	C501.899017,467.954346 500.771545,466.951111 500.163147,465.942719 
	C500.142944,463.596802 500.122742,461.250854 500.304077,458.350037 
	C500.739532,457.600342 500.911133,457.360901 501.020416,457.076782 
	C516.154175,466.033325 531.354004,474.880402 546.408447,483.968353 
	C581.647156,505.240997 616.808289,526.642090 652.032959,547.937988 
	C654.142761,549.213440 656.535034,550.021729 659.203735,551.056396 
	C659.468445,551.455444 659.325256,551.845459 659.198181,552.547424 
z"/>
<path fill="#09925E" opacity="1.000000" stroke="none" 
	d="
M223.111130,496.551270 
	C223.466919,497.684784 223.963501,499.272675 223.964554,500.860931 
	C223.997665,550.677795 223.982513,600.494751 223.961639,650.800415 
	C223.633255,649.754150 223.043701,648.219299 223.042404,646.683960 
	C223.000305,596.791260 223.014847,546.898560 223.111130,496.551270 
z"/>
<path fill="#0B925F" opacity="1.000000" stroke="none" 
	d="
M784.950989,463.488190 
	C784.600342,462.721832 784.039612,461.492798 784.037842,460.262970 
	C783.991272,427.053772 784.000427,393.844543 784.014954,360.635284 
	C784.015259,359.983337 784.192932,359.331421 784.567871,358.380920 
	C784.899048,393.063263 784.950256,428.044220 784.950989,463.488190 
z"/>
<path fill="#14794E" opacity="1.000000" stroke="none" 
	d="
M778.417725,674.018677 
	C778.281921,673.394165 778.246826,672.482544 778.630554,671.809753 
	C786.119995,658.680420 785.941956,645.295105 780.095093,631.687134 
	C779.972656,631.402039 780.052429,631.030090 780.039795,630.307129 
	C788.037964,641.159851 788.397522,660.759033 778.417725,674.018677 
z"/>
<path fill="#1C9D6D" opacity="1.000000" stroke="none" 
	d="
M295.227173,518.525757 
	C294.226990,516.315002 292.184631,513.677612 292.222931,511.070740 
	C292.367828,501.209595 290.607788,491.813049 287.047607,482.292297 
	C291.377319,487.508606 292.532928,494.089691 293.106689,500.930084 
	C293.588531,506.674225 294.448090,512.386658 295.227173,518.525757 
z"/>
<path fill="#1C9D6D" opacity="1.000000" stroke="none" 
	d="
M265.559875,467.019714 
	C264.005096,467.709869 262.074768,468.719452 260.089264,468.843292 
	C255.254227,469.144775 250.393600,469.035400 245.096466,469.163452 
	C251.093964,464.970520 258.190491,466.523315 265.559875,467.019714 
z"/>
<path fill="#09925E" opacity="1.000000" stroke="none" 
	d="
M223.106598,345.546326 
	C223.449707,349.115509 223.916763,353.141174 223.953415,357.170746 
	C224.014511,363.889862 223.800079,370.611511 223.417542,377.628235 
	C223.101334,367.284424 223.069229,356.644470 223.106598,345.546326 
z"/>
<path fill="#1C9D6D" opacity="1.000000" stroke="none" 
	d="
M278.022095,472.550598 
	C274.881226,471.370209 271.592133,469.877167 268.177185,468.053436 
	C271.325500,469.227814 274.599701,470.732849 278.022095,472.550598 
z"/>
<path fill="#14794E" opacity="1.000000" stroke="none" 
	d="
M775.350098,677.968994 
	C775.887146,676.808899 776.683655,675.455139 777.842285,674.110840 
	C777.339417,675.338684 776.474487,676.557068 775.350098,677.968994 
z"/>
<path fill="#14794E" opacity="1.000000" stroke="none" 
	d="
M759.530029,689.315796 
	C760.273071,688.606567 761.343262,687.818176 762.790405,687.069092 
	C762.063904,687.817810 760.960510,688.527222 759.530029,689.315796 
z"/>
<path fill="#14794E" opacity="1.000000" stroke="none" 
	d="
M771.931641,621.662598 
	C770.851318,621.391113 769.582581,620.849854 768.323486,619.923950 
	C769.469849,620.157166 770.606445,620.774963 771.931641,621.662598 
z"/>
<path fill="#14794E" opacity="1.000000" stroke="none" 
	d="
M766.509644,685.296631 
	C766.994263,684.627258 767.796570,683.878296 768.963745,683.207275 
	C768.494934,683.929138 767.661072,684.573181 766.509644,685.296631 
z"/>
<path fill="#14794E" opacity="1.000000" stroke="none" 
	d="
M763.372742,687.097656 
	C763.899536,686.499512 764.735535,685.810547 765.929077,685.190002 
	C765.418396,685.841248 764.550110,686.424011 763.372742,687.097656 
z"/>
<path fill="#14794E" opacity="1.000000" stroke="none" 
	d="
M774.216064,623.175415 
	C773.622742,623.136597 772.858582,622.876526 772.076782,622.250244 
	C772.721191,622.240723 773.383179,622.597412 774.216064,623.175415 
z"/>
<path fill="#14794E" opacity="1.000000" stroke="none" 
	d="
M779.340881,628.395142 
	C778.659790,628.002625 777.879639,627.317200 777.064697,626.282227 
	C777.767212,626.655884 778.504517,627.379089 779.340881,628.395142 
z"/>
<path fill="#1C9D6D" opacity="1.000000" stroke="none" 
	d="
M285.287933,479.573212 
	C284.864594,479.442749 284.475800,478.998840 284.054199,478.231140 
	C284.455078,478.358154 284.888763,478.808960 285.287933,479.573212 
z"/>
<path fill="#1C9D6D" opacity="1.000000" stroke="none" 
	d="
M279.906616,473.741577 
	C279.506500,473.779175 278.903168,473.583679 278.180084,473.082916 
	C278.608032,473.021271 279.155731,473.264862 279.906616,473.741577 
z"/>
<path fill="#14794E" opacity="1.000000" stroke="none" 
	d="
M770.864990,682.383545 
	C770.899414,682.005493 771.181458,681.541687 771.805420,681.081787 
	C771.802429,681.489746 771.457458,681.893799 770.864990,682.383545 
z"/>
<path fill="#14794E" opacity="1.000000" stroke="none" 
	d="
M776.024658,624.642090 
	C775.554077,624.675720 774.959595,624.441406 774.389343,623.858032 
	C774.909302,623.797424 775.404968,624.085754 776.024658,624.642090 
z"/>
<path fill="#0B925F" opacity="1.000000" stroke="none" 
	d="
M783.984741,467.637817 
	C783.842529,467.378693 783.782410,466.804962 783.982300,466.132996 
	C784.183716,466.464264 784.125244,466.893738 783.984741,467.637817 
z"/>
<path fill="#14794E" opacity="1.000000" stroke="none" 
	d="
M769.496948,683.281006 
	C769.370728,683.012268 769.535461,682.665100 770.006470,682.314270 
	C770.137817,682.607910 769.962891,682.905273 769.496948,683.281006 
z"/>
<path fill="#14794E" opacity="1.000000" stroke="none" 
	d="
M772.313354,681.061523 
	C772.253662,680.850403 772.456238,680.543579 772.931763,680.154724 
	C772.995056,680.370422 772.785339,680.668091 772.313354,681.061523 
z"/>
<path fill="#14794E" opacity="1.000000" stroke="none" 
	d="
M773.336670,680.098633 
	C773.269592,679.886841 773.463501,679.567993 773.932617,679.159546 
	C774.004333,679.377075 773.800964,679.684326 773.336670,680.098633 
z"/>
<path fill="#14794E" opacity="1.000000" stroke="none" 
	d="
M758.342590,690.132385 
	C758.280334,689.906311 758.498657,689.590332 759.012878,689.218140 
	C759.080200,689.455444 758.851624,689.748962 758.342590,690.132385 
z"/>
<path fill="#14794E" opacity="1.000000" stroke="none" 
	d="
M774.343018,679.104309 
	C774.261597,678.886292 774.446106,678.563843 774.901611,678.149719 
	C774.984741,678.372009 774.796814,678.685913 774.343018,679.104309 
z"/>
<path fill="#14794E" opacity="1.000000" stroke="none" 
	d="
M780.031128,629.694702 
	C779.806335,629.733948 779.536133,629.493347 779.255127,628.967407 
	C779.491455,628.926331 779.738586,629.170593 780.031128,629.694702 
z"/>
<path fill="#14794E" opacity="1.000000" stroke="none" 
	d="
M776.997498,625.713379 
	C776.776672,625.771057 776.497498,625.561157 776.135559,625.094116 
	C776.348267,625.039978 776.643677,625.242798 776.997498,625.713379 
z"/>
<path fill="#14794E" opacity="1.000000" stroke="none" 
	d="
M768.131348,619.485107 
	C767.847961,619.622437 767.461182,619.411621 766.861084,618.928223 
	C767.107788,618.816162 767.567871,618.976562 768.131348,619.485107 
z"/>
<path fill="#1B7959" opacity="1.000000" stroke="none" 
	d="
M659.766846,553.029297 
	C659.701050,553.149292 659.431641,553.162903 659.144409,552.978638 
	C659.126526,552.780823 659.563354,552.922791 659.766846,553.029297 
z"/>
<path fill="#1C9D6D" opacity="1.000000" stroke="none" 
	d="
M287.046509,481.678528 
	C286.805664,481.769562 286.513214,481.566040 286.157379,481.092194 
	C286.394287,481.009247 286.694550,481.196625 287.046509,481.678528 
z"/>
<path fill="#1C9D6D" opacity="1.000000" stroke="none" 
	d="
M286.196655,480.565857 
	C285.891785,480.714233 285.569550,480.537689 285.171967,480.084869 
	C285.457489,479.952698 285.818390,480.096802 286.196655,480.565857 
z"/>
<path fill="#1C9D6D" opacity="1.000000" stroke="none" 
	d="
M283.137085,476.673096 
	C282.925751,476.730072 282.588440,476.518890 282.154114,476.016418 
	C282.375122,475.951691 282.693085,476.178314 283.137085,476.673096 
z"/>
<path fill="#2D8A65" opacity="1.000000" stroke="none" 
	d="
M500.109802,466.414246 
	C500.771545,466.951111 501.899017,467.954346 501.909149,468.968719 
	C502.028107,480.888123 501.997314,492.809235 501.929840,504.729523 
	C501.925903,505.425079 501.267670,506.116974 500.541077,506.934052 
	C500.130981,493.666901 500.093750,480.276337 500.109802,466.414246 
z"/>
<path fill="#2D8A65" opacity="1.000000" stroke="none" 
	d="
M500.120728,509.407104 
	C503.621399,513.396179 502.218445,518.107239 500.532837,522.934814 
	C500.128296,518.662292 500.096191,514.268555 500.120728,509.407104 
z"/>
<path fill="#2D8A65" opacity="1.000000" stroke="none" 
	d="
M500.796631,457.152771 
	C500.911133,457.360901 500.739532,457.600342 500.316101,457.910095 
	C500.136536,457.681854 500.285278,457.416412 500.796631,457.152771 
z"/>
</svg>